<svg xmlns="http://www.w3.org/2000/svg" xmlns:xlink="http://www.w3.org/1999/xlink" width="375" height="64" viewBox="0 0 375 64">
  <defs>
    <clipPath id="clip-path">
      <rect id="Rectangle_1" data-name="Rectangle 1" width="340.941" height="36.691" fill="none"/>
    </clipPath>
    <clipPath id="clip-_01.100.044_Upwork_Paid_Campaign_Creative_Assets-Logo_Red-Black">
      <rect width="375" height="64"/>
    </clipPath>
  </defs>
  <g id="_01.100.044_Upwork_Paid_Campaign_Creative_Assets-Logo_Red-Black" data-name="01.100.044 Upwork Paid Campaign Creative Assets-Logo Red-Black" clip-path="url(#clip-_01.100.044_Upwork_Paid_Campaign_Creative_Assets-Logo_Red-Black)">
    <g id="Group_2" data-name="Group 2" transform="translate(17 14)">
      <g id="Group_1" data-name="Group 1" transform="translate(0 0)" clip-path="url(#clip-path)">
        <path id="Path_1" data-name="Path 1" d="M333.562,13.958,330.779,1.892H323.9l6.461,19.617V34.955h6.459V21.509L343.23,1.892h-6.837L333.8,13.958Zm-6.626,21V28.777h-8.169V1.892h-6.458V34.955ZM305.593,17.424a4.411,4.411,0,0,0,1.638-1,5.65,5.65,0,0,0,1.117-1.519,7.958,7.958,0,0,0,.639-1.828,9.171,9.171,0,0,0,.215-1.974q0-4.559-2.21-6.888t-6.629-2.326h-7.456V34.955h7.315q4.605,0,6.938-2.494t2.326-7.818a12.875,12.875,0,0,0-.191-2.234,7.565,7.565,0,0,0-.639-2.015,5.809,5.809,0,0,0-1.189-1.639,4.83,4.83,0,0,0-1.875-1.094Zm-2.378,8.9a4.268,4.268,0,0,1-.4,1.43,2.466,2.466,0,0,1-.856.983,2.617,2.617,0,0,1-1.448.355h-1.436V20.607h1.484a2.559,2.559,0,0,1,2.066.813,4.412,4.412,0,0,1,.69,2.819c0,.639-.032,1.547-.1,2.09m-3.039-11.707h-1.1V7.567h.961a3.353,3.353,0,0,1,2.281.642c.474.428.713,1.373.713,3.088q0,3.328-2.851,3.323M279.666,28.493l3.028-12.037h.382v18.5h6.458V1.892H283.5l-3.231,8.692-2.281,6.7h-.284l-2.233-6.556L272.2,1.892h-6.032V34.955h6.462V16.316h.43l3.073,12.177Zm-15.592,6.462V28.777h-8.695v-7.5h7.6V15.1h-7.6V8.066h8.695V1.892H248.92V34.955ZM246.044,21.819a7.368,7.368,0,0,0-.9-2.684,7.465,7.465,0,0,0-2.009-2.185,15.584,15.584,0,0,0-3.595-1.9,13.548,13.548,0,0,1-2.059-.976,4.25,4.25,0,0,1-1.111-.926,2.246,2.246,0,0,1-.474-1,6.73,6.73,0,0,1-.092-1.186,8.87,8.87,0,0,1,.071-1.1,3.27,3.27,0,0,1,.281-1.021,2.167,2.167,0,0,1,.588-.758,1.577,1.577,0,0,1,1.034-.307,1.864,1.864,0,0,1,1.1.283,1.97,1.97,0,0,1,.633.782,3.622,3.622,0,0,1,.308,1.117,12.34,12.34,0,0,1,.069,1.332l6.366-1.379a11.345,11.345,0,0,0-.379-2.849,7.411,7.411,0,0,0-1.308-2.684,6.95,6.95,0,0,0-2.541-1.995,9.336,9.336,0,0,0-4.085-.785,9.944,9.944,0,0,0-3.968.713,6.965,6.965,0,0,0-2.66,1.944,7.8,7.8,0,0,0-1.5,2.962A14.251,14.251,0,0,0,229.348,11a17.228,17.228,0,0,0,.238,2.965,6.865,6.865,0,0,0,1.021,2.559,8.794,8.794,0,0,0,2.258,2.279,18.975,18.975,0,0,0,3.894,2.06,14.253,14.253,0,0,1,1.519.734,3.184,3.184,0,0,1,.974.833,2.833,2.833,0,0,1,.5,1.137,8.268,8.268,0,0,1,.14,1.657c0,.475-.024.95-.069,1.424a4.387,4.387,0,0,1-.284,1.234,2.113,2.113,0,0,1-.609.854,2,2,0,0,1-2.774-.571,7.246,7.246,0,0,1-.541-2.708l-6.506,1.233A11.261,11.261,0,0,0,229.586,30a7.328,7.328,0,0,0,1.5,2.726,6.911,6.911,0,0,0,2.66,1.845,10.364,10.364,0,0,0,3.918.669,10.662,10.662,0,0,0,4.179-.711,6.318,6.318,0,0,0,2.64-2.018,8.164,8.164,0,0,0,1.376-3.162,19.489,19.489,0,0,0,.4-4.133,23.977,23.977,0,0,0-.215-3.395m-19.094,0a6.923,6.923,0,0,0-2.909-4.869,15.556,15.556,0,0,0-3.592-1.9,13.567,13.567,0,0,1-2.059-.976,4.266,4.266,0,0,1-1.111-.926,2.241,2.241,0,0,1-.472-1,6.712,6.712,0,0,1-.1-1.186,8.875,8.875,0,0,1,.071-1.1,3.405,3.405,0,0,1,.284-1.021,2.159,2.159,0,0,1,.585-.758,1.582,1.582,0,0,1,1.034-.307,1.866,1.866,0,0,1,1.1.283,1.982,1.982,0,0,1,.635.782,3.621,3.621,0,0,1,.3,1.117A11.626,11.626,0,0,1,220.8,11.3l6.366-1.379a11.4,11.4,0,0,0-.382-2.849,7.467,7.467,0,0,0-1.305-2.684,6.97,6.97,0,0,0-2.54-1.995,9.349,9.349,0,0,0-4.086-.785,9.935,9.935,0,0,0-3.967.713,6.943,6.943,0,0,0-2.661,1.944,7.812,7.812,0,0,0-1.5,2.962A14.25,14.25,0,0,0,210.253,11a17.145,17.145,0,0,0,.236,2.965,6.849,6.849,0,0,0,1.021,2.559,8.82,8.82,0,0,0,2.257,2.279,19.056,19.056,0,0,0,3.9,2.06,14.281,14.281,0,0,1,1.52.734,3.237,3.237,0,0,1,.973.833,2.817,2.817,0,0,1,.5,1.137,8.037,8.037,0,0,1,.143,1.657,14.243,14.243,0,0,1-.071,1.424,4.458,4.458,0,0,1-.281,1.234,2.13,2.13,0,0,1-.612.854,1.995,1.995,0,0,1-2.77-.571,7.209,7.209,0,0,1-.541-2.708l-6.509,1.233A11.231,11.231,0,0,0,210.489,30a7.292,7.292,0,0,0,1.5,2.726,6.875,6.875,0,0,0,2.661,1.845,10.356,10.356,0,0,0,3.917.669,10.678,10.678,0,0,0,4.181-.711,6.306,6.306,0,0,0,2.637-2.018,8.181,8.181,0,0,0,1.379-3.162,19.677,19.677,0,0,0,.4-4.133,24.133,24.133,0,0,0-.214-3.395M198.71,10.44h.283l.713,6.7.618,5.27h-2.992L198,17.14Zm3.562,24.515h6.794L202.746,1.892H194.86L188.59,34.955h6.841l1-6.462h4.847Zm-22.325,0V28.777h-8.695V1.892h-6.458V34.955ZM152.774,10.44h.283l.714,6.7.617,5.27H151.4l.663-5.27Zm3.562,24.515h6.794L156.81,1.892h-7.885l-6.27,33.063h6.84l1-6.462h4.846ZM132.3,8.066a3.349,3.349,0,0,1,2.4.878,3.679,3.679,0,0,1,.926,2.78,6.148,6.148,0,0,1-.285,2.066,3.207,3.207,0,0,1-.785,1.26,2.594,2.594,0,0,1-1.114.642,5.147,5.147,0,0,1-1.332.164h-1V8.066Zm-7.65-6.175V34.955h6.461V22.079h1.281l3.9,12.876h6.6l-4.748-14.348a7.691,7.691,0,0,0,2.753-3.422,14.266,14.266,0,0,0,.9-5.509,13.413,13.413,0,0,0-.69-4.584,7.8,7.8,0,0,0-1.922-3.04,7.147,7.147,0,0,0-2.948-1.663,13.409,13.409,0,0,0-3.753-.5Zm-2.374,33.063V28.777h-8.695v-7.5h7.6V15.1h-7.6V8.066h8.695V1.892H107.122V34.955ZM97.1,19.048,90.971,1.892H85.317V34.955h6.461V17.511h.236l6.151,17.444h5.488V1.892H97.335V19.048ZM83.086,34.955V28.777H74.391v-7.5h7.6V15.1h-7.6V8.066h8.695V1.892H67.93V34.955ZM50.474,3.982a8.906,8.906,0,0,0-2.21,6.318V26.877q0,4.184,2.042,6.271t6.51,2.09a8.512,8.512,0,0,0,6.175-2.111q2.186-2.119,2.185-6.2v-10.4H57.1v5.653H59v5.082a1.609,1.609,0,0,1-.6,1.308,2.527,2.527,0,0,1-1.6.5c-.8,0-1.535-.207-1.753-.618a2.723,2.723,0,0,1-.323-1.281V10.3a3.93,3.93,0,0,1,.093-.786,2.515,2.515,0,0,1,.325-.83,2.037,2.037,0,0,1,.628-.642,1.87,1.87,0,0,1,1.045-.259,1.756,1.756,0,0,1,1.556.973A5.021,5.021,0,0,1,59,11.2l6.271-1.092a9.414,9.414,0,0,0-.311-3.375,6.545,6.545,0,0,0-1.519-2.705,7.266,7.266,0,0,0-2.708-1.783,10.643,10.643,0,0,0-3.87-.641,8.291,8.291,0,0,0-6.39,2.377" transform="translate(-2.29 -0.076)"/>
        <path id="Path_2" data-name="Path 2" d="M16.121,0a2.226,2.226,0,0,0,2.224,2.224A2.223,2.223,0,0,0,20.567,0l2.744.548a2.222,2.222,0,1,0,4.106,1.7L29.746,3.8a2.222,2.222,0,0,0,3.142,3.143l1.556,2.328a2.222,2.222,0,0,0,1.7,4.106l.55,2.744a2.222,2.222,0,1,0,0,4.445l-.547,2.745a2.222,2.222,0,1,0-1.7,4.106l-1.556,2.329a2.221,2.221,0,1,0-3.142,3.141l-2.329,1.556a2.222,2.222,0,1,0-4.106,1.7l-2.744.547a2.223,2.223,0,0,0-4.446,0l-2.744-.547a2.222,2.222,0,1,0-4.106-1.7L6.942,32.889A2.221,2.221,0,1,0,3.8,29.748L2.246,27.421a2.223,2.223,0,0,0-1.7-4.107L0,20.569a2.222,2.222,0,0,0,2.221-2.223A2.221,2.221,0,0,0,0,16.124L.547,13.38a2.222,2.222,0,0,0,1.7-4.106L3.8,6.945A2.221,2.221,0,0,0,6.942,3.8L9.271,2.248a2.222,2.222,0,0,0,4.106-1.7Z" transform="translate(0 0)" fill="#d9001c"/>
        <path id="Path_3" data-name="Path 3" d="M13.85,7.862a3.709,3.709,0,0,0-2.881,1.087,4.089,4.089,0,0,0-1,2.884V25.757a3.989,3.989,0,0,0,.923,2.863,3.934,3.934,0,0,0,2.938.955,3.811,3.811,0,0,0,2.785-.967,3.786,3.786,0,0,0,.986-2.832V19.291H14.041v2.58h.642v4.062a.734.734,0,0,1-.272.593,1.031,1.031,0,0,1-.69.229c-.361,0-.593-.093-.69-.282a1.254,1.254,0,0,1-.147-.587V11.833a1.733,1.733,0,0,1,.042-.358,1.227,1.227,0,0,1,.147-.38.916.916,0,0,1,.283-.291.833.833,0,0,1,.472-.12v0a.157.157,0,0,1,.042,0,.82.82,0,0,1,.469.12.89.89,0,0,1,.287.291,1.16,1.16,0,0,1,.147.38,1.955,1.955,0,0,1,.042.358v3.24h2.917v-3.24a4.089,4.089,0,0,0-1-2.884A3.709,3.709,0,0,0,13.85,7.862" transform="translate(-0.473 -0.373)" fill="#fff"/>
        <path id="Path_4" data-name="Path 4" d="M25.239,8H21.682L18.848,29.449h3.087l.664-5.211H24.36l.662,5.211h3.064ZM23.476,21.836A1.636,1.636,0,1,1,25.092,20.2a1.625,1.625,0,0,1-1.616,1.636" transform="translate(-0.894 -0.38)" fill="#fff"/>
      </g>
    </g>
  </g>
</svg>
